<?xml version="1.0" encoding="utf-8"?>
<!-- Svg Vector Icons : http://www.onlinewebfonts.com/icon -->
<!DOCTYPE svg PUBLIC "-//W3C//DTD SVG 1.1//EN" "http://www.w3.org/Graphics/SVG/1.1/DTD/svg11.dtd">
<svg version="1.1" xmlns="http://www.w3.org/2000/svg" xmlns:xlink="http://www.w3.org/1999/xlink" x="0px" y="0px" viewBox="0 0 256 256" enable-background="new 0 0 256 256" xml:space="preserve">
<metadata> Svg Vector Icons : http://www.onlinewebfonts.com/icon </metadata>
<g><g><path fill="#000000" d="M37.8,190.5h27.8v13.9H37.8V190.5z"/><path fill="#000000" d="M93.3,51.6h13.9v13.9H93.3V51.6z"/><path fill="#000000" d="M10,107.2h13.9V121H10V107.2z"/><path fill="#000000" d="M10,176.6v27.8h13.9v-13.9h13.9v-13.9L10,176.6L10,176.6z"/><path fill="#000000" d="M121.1,204.4v13.9h13.9v-13.9h13.9v13.9h13.9v-27.8h-41.6v-27.8h-13.9v41.6L121.1,204.4L121.1,204.4z"/><path fill="#000000" d="M23.9,93.3h27.8v13.9H23.9V93.3z"/><path fill="#000000" d="M204.4,37.8h13.9v13.9h-13.9V37.8z"/><path fill="#000000" d="M23.9,148.8h13.9v13.9H23.9V148.8z"/><path fill="#000000" d="M10,134.9h13.9v13.9H10V134.9z"/><path fill="#000000" d="M107.2,218.2H121v13.9h-13.9V218.2z"/><path fill="#000000" d="M79.4,10H10v69.4h69.4V10z M65.5,65.5H23.9V23.9h41.6L65.5,65.5L65.5,65.5z"/><path fill="#000000" d="M148.8,232.1h13.9V246h-13.9V232.1L148.8,232.1z"/><path fill="#000000" d="M37.8,37.8h13.9v13.9H37.8V37.8z"/><path fill="#000000" d="M176.6,10v69.4H246V10H176.6z M232.1,65.5h-41.7V23.9h41.6L232.1,65.5L232.1,65.5z"/><path fill="#000000" d="M93.3,23.9h13.9v13.9H93.3V23.9z"/><path fill="#000000" d="M79.4,218.2H10V246h13.9v-13.9h13.9V246h13.9v-13.9h13.9V246h41.6v-13.9H79.4V218.2z"/><path fill="#000000" d="M121.1,232.1h13.9V246h-13.9V232.1L121.1,232.1z"/><path fill="#000000" d="M232.1,148.8H246v13.9h-13.9V148.8z"/><path fill="#000000" d="M79.4,148.8h13.9v13.9h13.9v-13.9H121V135H79.4V148.8z"/><path fill="#000000" d="M162.7,134.9v-13.9h-41.6v13.9h13.9v41.6h27.8v-13.9h-13.9v-13.9h27.8v-13.9H162.7z"/><path fill="#000000" d="M134.9,51.6h13.9V37.8h13.9V23.9h-13.9V10h-41.6v13.9h27.8v13.9h-13.9v27.8h13.9V51.6z"/><path fill="#000000" d="M65.5,134.9H51.7v-13.9H37.8v27.8h13.9v13.9H37.8v13.9h27.8L65.5,134.9L65.5,134.9z"/><path fill="#000000" d="M65.5,134.9h13.9v-13.9h1.2h12.7v-13.9H80.6h-1.2V93.3H65.5v13.9H51.7v13.9h13.9V134.9z"/><path fill="#000000" d="M204.4,204.4h13.9v13.9h-13.9V204.4z"/><path fill="#000000" d="M176.6,246H246v-69.4h-69.4V246z M190.5,190.5h41.6v41.6h-41.6V190.5z"/><path fill="#000000" d="M93.3,162.7H79.4v13.9H65.6v13.9h13.9v27.8h13.9V162.7z"/><path fill="#000000" d="M232.1,121.1h-13.9v13.9h-27.8v13.9h13.9v13.9h13.9v-13.9h13.9v-13.9H246V93.3h-13.9V121.1z"/><path fill="#000000" d="M176.6,148.8h13.9v13.9h-13.9V148.8z"/><path fill="#000000" d="M176.6,121.1h13.9v13.9h-13.9V121.1z"/><path fill="#000000" d="M176.6,93.3h34.7v13.9h-34.7V93.3L176.6,93.3z"/><path fill="#000000" d="M121.1,93.3v13.9h41.6V93.3h-13.9V65.5H135v27.8H121.1z"/><path fill="#000000" d="M93.3,79.4h13.9v27.8H93.3V79.4z"/><path fill="#000000" d="M107.2,65.5H121v13.9h-13.9V65.5z"/><path fill="#000000" d="M107.2,107.2H121V121h-13.9V107.2z"/><path fill="#000000" d="M162.7,107.2h13.9V121h-13.9V107.2z"/></g></g>
</svg>